<svg width="14" height="14" viewBox="0 0 14 14" fill="none" xmlns="http://www.w3.org/2000/svg">
<path fill-rule="evenodd" clip-rule="evenodd" d="M1.66341 6.18794C1.66341 3.61061 3.75275 1.52128 6.33008 1.52128C8.90741 1.52128 10.9967 3.61061 10.9967 6.18794C10.9967 7.44522 10.4995 8.58636 9.69105 9.42549C9.66821 9.44305 9.64624 9.46229 9.62532 9.48321C9.6044 9.50413 9.58516 9.5261 9.5676 9.54894C8.72847 10.3574 7.58734 10.8546 6.33008 10.8546C3.75275 10.8546 1.66341 8.76527 1.66341 6.18794ZM10.0752 10.8759C9.04874 11.697 7.74675 12.1879 6.33008 12.1879C3.01637 12.1879 0.330078 9.50165 0.330078 6.18794C0.330078 2.87423 3.01637 0.187943 6.33008 0.187943C9.64379 0.187943 12.3301 2.87423 12.3301 6.18794C12.3301 7.60463 11.8391 8.90663 11.018 9.93308L13.4681 12.3832C13.7285 12.6436 13.7285 13.0657 13.4681 13.326C13.2078 13.5864 12.7857 13.5864 12.5253 13.326L10.0752 10.8759Z" fill="#2D3440"/>
</svg>
